<svg xmlns="http://www.w3.org/2000/svg" version="1.1" xmlns:xlink="http://www.w3.org/1999/xlink" width="200" height="200"><svg xmlns="http://www.w3.org/2000/svg" version="1.1" xmlns:xlink="http://www.w3.org/1999/xlink" viewBox="0 0 200 200"><rect width="200" height="200" fill="url('#gradient')"></rect><defs><linearGradient id="SvgjsLinearGradient1001" gradientTransform="rotate(45 0.5 0.5)"><stop offset="0%" stop-color="#000000"></stop><stop offset="100%" stop-color="#000000"></stop></linearGradient></defs><g><g fill="#e0eef3" transform="matrix(5.165825874694874,0,0,5.165825874694874,36.177705117082866,136.70756593274334)" stroke="#000000" stroke-width="0"><path d="M6.74-4.46L6.74-14.22L10.16-14.22L10.16-4.46Q10.16-3.11 9.53-2.04Q8.90-0.98 7.77-0.39Q6.64 0.20 5.25 0.20L5.25 0.20Q2.93 0.20 1.64-0.98Q0.35-2.15 0.35-4.30L0.35-4.30L3.79-4.30Q3.79-3.32 4.13-2.88Q4.46-2.44 5.25-2.44L5.25-2.44Q5.97-2.44 6.35-2.97Q6.74-3.51 6.74-4.46L6.74-4.46ZM24.36-7.47L24.36-6.82Q24.36-4.74 23.58-3.13Q22.81-1.53 21.39-0.67Q19.97 0.20 18.15 0.20Q16.34 0.20 14.93-0.64Q13.53-1.47 12.74-3.03Q11.95-4.58 11.91-6.59L11.91-6.59L11.91-7.39Q11.91-9.48 12.68-11.08Q13.45-12.68 14.88-13.54Q16.31-14.41 18.13-14.41L18.13-14.41Q19.94-14.41 21.36-13.55Q22.77-12.70 23.56-11.11Q24.35-9.52 24.36-7.47L24.36-7.47ZM20.87-6.76L20.87-7.41Q20.87-9.53 20.16-10.63Q19.45-11.73 18.13-11.73L18.13-11.73Q15.56-11.73 15.41-7.86L15.41-7.86L15.40-6.82Q15.40-4.73 16.09-3.60Q16.79-2.48 18.15-2.48L18.15-2.48Q19.45-2.48 20.16-3.58Q20.86-4.69 20.87-6.76L20.87-6.76Z"></path></g></g></svg><style>@media (prefers-color-scheme: light) { :root { filter: none; } }
@media (prefers-color-scheme: dark) { :root { filter: none; } }
</style></svg>